<?xml version="1.0" standalone="no"?>
<!DOCTYPE svg PUBLIC "-//W3C//DTD SVG 20010904//EN"
 "http://www.w3.org/TR/2001/REC-SVG-20010904/DTD/svg10.dtd">
<svg version="1.0" xmlns="http://www.w3.org/2000/svg"
 width="666.000000pt" height="666.000000pt" viewBox="0 0 666.000000 666.000000"
 preserveAspectRatio="xMidYMid meet">
<metadata>
Created by potrace 1.14, written by Peter Selinger 2001-2017
</metadata>
<g transform="translate(0.000000,666.000000) scale(0.100000,-0.100000)"
fill="#000000" stroke="none">
<path d="M3148 5195 c-2 -2 -34 -6 -73 -8 -38 -3 -81 -8 -95 -11 -14 -2 -43
-7 -64 -11 -264 -39 -635 -212 -850 -396 -87 -75 -225 -219 -287 -299 -71 -92
-166 -240 -161 -252 1 -5 -2 -8 -7 -8 -8 0 -24 -37 -22 -52 1 -5 -3 -8 -8 -8
-5 0 -17 -22 -26 -50 -9 -27 -20 -50 -24 -50 -4 0 -8 -6 -9 -12 0 -7 -16 -58
-35 -113 -37 -107 -74 -261 -82 -348 -3 -30 -8 -65 -10 -78 -9 -42 -5 -384 5
-384 0 0 3 -20 6 -44 2 -25 7 -56 9 -70 11 -55 18 -97 18 -108 0 -7 3 -13 6
-13 4 0 8 -11 9 -24 2 -30 57 -196 84 -256 55 -123 136 -272 150 -278 4 -2 8
-10 8 -18 0 -8 5 -14 12 -14 6 0 9 -3 5 -6 -3 -4 -1 -12 6 -20 19 -21 31 -36
57 -74 34 -48 37 -51 159 -177 59 -62 111 -110 115 -106 3 3 6 2 6 -3 0 -6 33
-35 73 -65 39 -29 74 -57 75 -61 2 -5 8 -8 14 -8 5 0 28 -12 51 -27 23 -16 51
-34 62 -41 41 -26 225 -112 240 -112 8 0 15 -5 15 -12 0 -6 2 -9 6 -6 3 3 27
-3 55 -13 92 -35 246 -73 339 -84 19 -2 55 -7 80 -10 91 -14 393 -7 479 10 14
3 40 8 56 10 42 6 87 15 95 20 4 2 22 7 41 10 47 8 212 64 223 76 6 5 16 9 23
9 11 0 78 31 183 86 42 21 143 85 150 94 3 3 21 16 40 28 20 11 45 29 57 39
62 52 59 51 78 37 13 -9 23 -10 36 -3 11 5 19 7 19 4 0 -3 14 1 30 10 17 9 30
13 30 11 0 -6 98 29 107 37 3 4 12 7 18 7 7 0 29 7 49 15 20 8 37 15 38 14 3
-2 155 78 205 107 18 11 33 22 33 27 0 4 5 7 10 7 6 0 21 10 34 23 13 12 38
35 56 51 37 34 80 99 80 121 0 8 4 15 9 15 5 0 12 15 16 33 4 17 9 39 11 47
16 63 -6 189 -45 250 -23 37 -100 110 -117 110 -8 0 -14 4 -14 9 0 5 -9 11
-21 14 -17 5 -19 9 -9 26 6 12 8 21 6 21 -3 0 1 18 9 40 8 22 14 43 14 45 -1
6 12 82 18 110 16 71 25 427 12 463 -5 14 -5 22 2 22 6 0 7 6 2 13 -4 6 -9 23
-10 37 -3 21 -18 113 -27 160 -2 8 -6 22 -9 30 -5 14 -24 87 -30 117 -2 7 -6
16 -10 19 -4 4 -7 17 -7 29 0 11 -4 25 -8 30 -4 6 -14 28 -21 50 -8 22 -29 70
-47 108 -18 37 -33 68 -32 70 1 1 -11 21 -25 44 -15 24 -27 45 -27 48 0 3 -24
40 -52 82 -29 41 -61 87 -70 101 -9 14 -22 29 -30 33 -7 5 -10 9 -6 9 19 0
-185 205 -282 282 -41 33 -83 66 -92 74 -10 7 -18 11 -18 8 0 -2 -12 7 -27 21
-16 14 -43 31 -60 37 -18 7 -33 16 -33 20 0 4 -6 8 -14 8 -8 0 -16 3 -18 8 -3
6 -171 92 -182 92 -2 0 -21 8 -42 17 -22 9 -48 18 -58 20 -11 2 -24 7 -30 12
-11 8 -79 28 -121 36 -11 2 -21 4 -22 5 -2 2 -7 4 -13 5 -5 1 -11 4 -12 5 -2
1 -16 3 -33 5 -16 1 -30 3 -30 5 0 2 -21 6 -85 14 -19 2 -46 7 -60 10 -26 7
-326 16 -332 11z"/>
</g>
</svg>
